<?xml version="1.0" encoding="UTF-8" standalone="no"?>
<svg
   xmlns:dc="http://purl.org/dc/elements/1.1/"
   xmlns:cc="http://creativecommons.org/ns#"
   xmlns:rdf="http://www.w3.org/1999/02/22-rdf-syntax-ns#"
   xmlns:svg="http://www.w3.org/2000/svg"
   xmlns="http://www.w3.org/2000/svg"
   xmlns:sodipodi="http://sodipodi.sourceforge.net/DTD/sodipodi-0.dtd"
   xmlns:inkscape="http://www.inkscape.org/namespaces/inkscape"
   version="1.1"
   viewBox="0 0 400 400"
   id="svg3725"
   sodipodi:docname="stellar.svg"
   width="400"
   height="400"
   inkscape:version="0.92.4 (5da689c313, 2019-01-14)">
  <metadata
     id="metadata3731">
    <rdf:RDF>
      <cc:Work
         rdf:about="">
        <dc:format>image/svg+xml</dc:format>
        <dc:type
           rdf:resource="http://purl.org/dc/dcmitype/StillImage" />
        <dc:title />
      </cc:Work>
    </rdf:RDF>
  </metadata>
  <defs
     id="defs3729" />
  <rect
     id="rect4582"
     width="400"
     height="400"
     rx="60"
     style="fill:#00cc66;fill-opacity:1" />
  <path
     id="path3723"
     d="m 360,132.42172 v 27.52964 l -11.64326,5.92238 c -8.84303,4.51074 -14.11101,13.88189 -13.36266,23.77069 0.25723,3.43444 0.39262,6.90945 0.39262,10.38446 -0.0165,50.8294 -28.57399,97.35547 -73.92071,120.43217 -45.34672,23.07671 -99.82088,18.805 -141.00568,-11.05728 v 0 l 23.9093,-12.16929 1.35386,-0.71663 c 34.31285,19.21472 76.25239,18.82608 110.20233,-1.02122 33.94994,-19.8473 54.82322,-56.17932 54.8476,-95.46775 -0.002,-4.86502 -0.31809,-9.72485 -0.94771,-14.54907 v 0 L 123.57421,280.26509 85.043154,299.87117 40,322.79 V 295.19275 L 85.354544,272.11166 107.3955,260.87535 Z M 138.50078,79.555849 c 45.34695,-23.092537 99.83088,-18.830981 141.02536,11.030546 v 0 l -3.28989,1.676659 -22.05449,11.222796 C 219.8777,84.351571 177.99453,84.785067 144.0949,104.62526 c -33.89964,19.84019 -54.748838,56.12161 -54.800603,95.36307 0.002,4.83356 0.318545,9.66187 0.947707,14.45441 v 0 L 276.30394,119.7927 314.835,100.18662 360,77.173132 V 104.7839 l -45.55762,23.18927 -22.04096,11.20926 -196.148247,99.81524 -10.925707,5.55731 -11.08817,5.65196 L 40,267.63607 v -27.62429 l 11.629718,-5.9224 c 8.850924,-4.50406 14.125797,-13.87796 13.376205,-23.77068 -0.261748,-3.41641 -0.392621,-6.84635 -0.392621,-10.28981 -0.0053,-50.83678 28.540536,-97.38051 73.887478,-120.473041 z"
     style="fill-rule:nonzero;fill:#ffffff;fill-opacity:1" />
</svg>
