<svg xmlns="http://www.w3.org/2000/svg" viewBox="0 0 321.44 321.44">
  <defs>
    <style>.cls-1{fill:#45b864;}.cls-2{fill:#fff;}</style>
  </defs>
  <title>Stellar Tip</title>
  <path class="cls-1" d="M321.44,43.41V278A43.42,43.42,0,0,1,278,321.44H43.41a43.17,43.17,0,0,1-27.36-9.72A15.19,15.19,0,0,0,20,309.21q9.69-8.07,19.38-16.16a2.05,2.05,0,0,1,1.75-.47c2.83.46,5.66.94,8.5,1.39L64,296.27l13.61,2.19c4.43.72,8.86,1.46,13.29,2.16S100,302,104.5,302.73s9.27,1.53,13.91,2.28c4.84.78,9.68,1.64,14.54,2.28,4.23.55,8.45,1.12,12.8.64a57.91,57.91,0,0,0,20.76-6.08,100.55,100.55,0,0,0,12.35-8.3c7.18-5.24,14.39-10.43,21.56-15.67Q215.3,267,230.13,256.09c8.1-5.92,16.24-11.79,24.34-17.71,11.22-8.2,22.35-16.54,33.68-24.59a9.32,9.32,0,0,0,2.48-13.06,39,39,0,0,0-3.31-4.16c-6-6.39-13.23-10-24.05-10.08-3.12-.15-7.87,1-12.38,3.1q-14.47,6.56-28.88,13.26-11,5.09-21.91,10.31a43.22,43.22,0,0,1-14.93,7.24c-9.23,2.44-18.59,1.79-26.62.07a83.52,83.52,0,0,1-22.2-8.23h0l-11.9-3.61c-8.79-2.66-17.61-5.26-26.39-8a70.41,70.41,0,0,0-20.65-3.34,95.3,95.3,0,0,0-26.23,4A81.75,81.75,0,0,0,33,208.26c-8.16,4.57-16,9.6-24.06,14.43l-9,5.4V43.41A43.42,43.42,0,0,1,43.41,0H278A43.42,43.42,0,0,1,321.44,43.41Z"/>
  <path class="cls-2" d="M288.15,213.79c-11.33,8.05-22.46,16.39-33.68,24.59-8.1,5.92-16.24,11.79-24.34,17.71Q215.27,267,200.42,277.88c-7.17,5.24-14.38,10.43-21.56,15.67a100.55,100.55,0,0,1-12.35,8.3,57.91,57.91,0,0,1-20.76,6.08c-4.35.48-8.57-.09-12.8-.64-4.86-.64-9.7-1.5-14.54-2.28-4.64-.75-9.27-1.54-13.91-2.28s-9.08-1.39-13.62-2.11-8.86-1.44-13.29-2.16L64,296.27,49.61,294c-2.84-.45-5.67-.93-8.5-1.39a2.05,2.05,0,0,0-1.75.47Q29.68,301.14,20,309.21a15.19,15.19,0,0,1-3.93,2.51l-.43-.35A43.34,43.34,0,0,1,0,278V228.09l9-5.4c8-4.83,15.9-9.86,24.06-14.43a81.75,81.75,0,0,1,18.12-6.94,95.3,95.3,0,0,1,26.23-4A70.41,70.41,0,0,1,98,200.65c8.78,2.71,17.6,5.31,26.39,8l11.9,3.61h0a83.52,83.52,0,0,0,22.2,8.23c8,1.72,17.39,2.37,26.62-.07a43.22,43.22,0,0,0,14.93-7.24Q211,207.94,222,202.85q14.4-6.72,28.88-13.26c4.51-2.05,9.26-3.25,12.38-3.1,10.82,0,18.05,3.69,24.05,10.08a39,39,0,0,1,3.31,4.16A9.32,9.32,0,0,1,288.15,213.79Z"/>
  <path class="cls-2" d="M15.62,311.37l.43.35a8.43,8.43,0,0,1-1,.39Z"/>
  <circle class="cls-2" cx="142.61" cy="146.5" r="34.94"/>
  <circle class="cls-2" cx="197.47" cy="65.58" r="29.68"/>
</svg>